<?xml version="1.0" standalone="no"?>
<!DOCTYPE svg PUBLIC "-//W3C//DTD SVG 20010904//EN"
 "http://www.w3.org/TR/2001/REC-SVG-20010904/DTD/svg10.dtd">
<svg version="1.0" xmlns="http://www.w3.org/2000/svg"
 width="400.000000pt" height="400.000000pt" viewBox="0 0 400.000000 400.000000"
 preserveAspectRatio="xMidYMid meet">
<metadata>
Created by potrace 1.11, written by Peter Selinger 2001-2013
</metadata>
<g transform="translate(0.000000,400.000000) scale(0.100000,-0.100000)"
fill="#000000" stroke="none">
<path d="M1949 3553 c-111 -106 -188 -220 -225 -333 -46 -138 -49 -140 -183
-140 -97 0 -123 -4 -228 -36 -102 -31 -219 -83 -260 -116 -20 -16 -16 -33 26
-118 63 -128 162 -253 251 -313 107 -75 110 -82 70 -229 -29 -105 -33 -136
-34 -252 0 -76 5 -160 13 -199 l14 -69 51 7 c92 11 159 26 255 56 111 35 112
36 209 105 95 68 115 69 202 9 134 -92 310 -158 456 -172 l61 -6 14 69 c8 40
14 133 14 219 0 130 -3 160 -23 225 -31 97 -37 143 -22 170 6 12 41 41 78 65
93 61 111 78 184 175 76 101 135 217 121 238 -14 24 -159 98 -258 133 -75 27
-110 33 -212 38 -148 8 -153 11 -190 129 -32 104 -114 230 -211 326 -39 38
-77 73 -86 78 -13 7 -32 -6 -87 -59z m122 -100 c72 -76 140 -193 188 -324 35
-92 98 -139 189 -139 46 0 237 -32 277 -46 63 -21 155 -69 155 -79 0 -7 -22
-46 -48 -86 -49 -74 -153 -175 -242 -236 -54 -36 -90 -99 -90 -155 0 -19 9
-61 20 -94 12 -32 23 -84 26 -114 3 -30 10 -70 16 -89 6 -20 8 -65 4 -115 -11
-123 -12 -126 -49 -120 -67 12 -165 48 -230 85 -38 22 -72 39 -76 39 -3 0 -29
16 -58 35 -97 65 -185 67 -263 6 -19 -15 -64 -42 -100 -60 -36 -18 -70 -37
-75 -41 -16 -13 -184 -60 -215 -60 -16 0 -30 7 -34 16 -11 29 -6 198 8 256 8
31 12 59 9 61 -2 3 5 36 16 75 39 131 20 213 -61 271 -110 76 -278 275 -278
328 0 13 57 46 124 70 53 19 213 42 294 43 111 0 177 44 213 139 25 68 57 142
84 193 27 51 133 178 149 178 6 0 28 -17 47 -37z"/>
<path d="M1924 2852 c-68 -24 -95 -43 -136 -94 -70 -87 -87 -196 -47 -302 25
-68 106 -146 175 -170 110 -37 230 -11 310 69 119 119 124 298 11 417 -82 86
-207 118 -313 80z"/>
<path d="M1394 1267 c-97 -37 -161 -119 -170 -217 -15 -163 80 -278 240 -288
82 -5 154 19 200 67 l26 27 -34 33 -33 32 -36 -24 c-148 -100 -311 44 -231
205 39 77 180 93 250 27 l22 -20 31 38 c17 21 31 41 31 45 0 11 -81 64 -119
76 -43 15 -136 14 -177 -1z"/>
<path d="M1893 1260 c-53 -24 -83 -70 -83 -128 0 -83 42 -125 155 -157 78 -22
105 -40 105 -69 0 -37 -23 -49 -81 -44 -34 4 -64 15 -93 35 l-42 30 -33 -39
c-38 -45 -36 -51 41 -94 47 -26 63 -29 138 -29 66 0 92 4 117 19 67 41 93 139
53 204 -21 34 -67 59 -160 87 -30 9 -61 22 -67 27 -16 13 -17 50 -1 66 18 18
88 14 137 -8 48 -22 55 -19 83 28 18 29 18 30 -8 47 -73 48 -188 59 -261 25z"/>
<path d="M2400 1258 c-72 -38 -98 -115 -66 -191 17 -43 43 -58 147 -92 98 -31
120 -54 92 -95 -14 -19 -23 -22 -67 -18 -32 3 -66 14 -93 31 -24 15 -46 27
-50 27 -5 -1 -21 -17 -36 -38 l-28 -37 28 -23 c44 -35 127 -62 192 -62 108 0
181 63 181 155 0 79 -48 123 -175 160 -33 9 -66 22 -72 27 -16 13 -17 50 -1
66 19 19 95 14 140 -9 l42 -21 28 33 c15 19 26 38 24 44 -1 5 -24 21 -51 35
-72 37 -174 40 -235 8z"/>
<path d="M650 1015 l0 -255 55 0 55 0 0 155 c0 85 3 155 8 154 4 0 59 -68 122
-152 l115 -152 55 0 55 0 3 253 2 252 -55 0 -55 0 -2 -162 -3 -163 -125 162
-125 163 -52 0 -53 0 0 -255z"/>
<path d="M2820 1015 l0 -255 55 0 54 0 3 158 3 157 65 -132 65 -132 38 0 37
-1 62 125 c35 69 65 125 68 125 3 0 5 -66 5 -147 l0 -148 55 0 55 0 3 253 2
252 -78 0 -78 0 -61 -131 c-33 -71 -64 -130 -69 -131 -5 0 -36 59 -69 131
l-60 130 -77 1 -78 0 0 -255z"/>
</g>
</svg>
